<?xml version="1.0" encoding="UTF-8" standalone="no"?><!DOCTYPE svg PUBLIC "-//W3C//DTD SVG 1.1//EN" "http://www.w3.org/Graphics/SVG/1.1/DTD/svg11.dtd"><svg width="100%" height="100%" viewBox="0 0 4267 4267" version="1.1" xmlns="http://www.w3.org/2000/svg" xmlns:xlink="http://www.w3.org/1999/xlink" xml:space="preserve" xmlns:serif="http://www.serif.com/" style="fill-rule:evenodd;clip-rule:evenodd;stroke-linejoin:round;stroke-miterlimit:2;"><g><path d="M1753.17,151.595c-91.22,-5.446 -273.26,-6.125 -432.954,40.844c-185.163,54.46 -389.58,181.977 -522.813,343.096c-34.153,41.302 -75.97,123.361 -125.209,147.041c-178.356,85.774 -485.185,178.355 -601.827,563.657c-57.616,190.323 -17.699,419.339 16.338,596.333c31.607,164.358 138.21,305.803 187.886,465.63c62.628,201.501 73.52,539.15 179.717,759.712c106.091,220.343 259.778,482.61 449.292,637.178c191.97,156.571 398.916,296.805 645.346,367.602c246.43,70.798 1033.37,95.304 1266.19,-65.351c165.846,-114.444 -667.192,-3682.16 -718.867,-3741.38c-32.188,-36.882 -326.787,-113.392 -343.096,-114.365Z" style="fill:#e4e1e5;"/><path d="M2107.98,257.791c-91.22,-5.446 -338.611,-79.645 -498.306,-32.676c-185.163,54.46 -512.114,255.498 -612.671,359.434c-37.265,38.517 -59.632,98.854 -108.871,122.534c-178.356,85.774 -501.522,153.848 -618.165,539.15c-57.616,190.323 -17.699,419.339 16.338,596.333c31.607,164.358 138.21,305.803 187.886,465.63c62.628,201.501 81.689,522.812 187.886,743.374c106.091,220.343 259.778,425.428 449.292,579.995c191.97,156.572 456.099,288.636 702.529,359.434c246.43,70.797 551.404,87.135 776.05,65.351c200.56,-19.448 404.362,-96.666 571.826,-196.054c167.463,-99.389 318.554,-240.457 432.954,-400.279c123.768,-172.909 241.582,-441.123 309.657,-637.177c59.931,-172.601 65.987,-403.002 98.79,-539.151c22.997,-95.447 66.713,-186.524 98.027,-277.744c30.754,-89.587 69.436,-182.44 89.859,-269.575c19.422,-82.867 40.585,-168.493 32.676,-253.237c-9.531,-102.112 -31.952,-250.353 -89.859,-359.434c-58.544,-110.281 -172.909,-230.092 -261.406,-302.251c-77.396,-63.107 -191.387,-68.581 -269.575,-130.703c-99.389,-78.967 -208.308,-257.322 -326.758,-343.096c-113.533,-82.213 -265.491,-137.51 -383.94,-171.548c-105.205,-30.231 -217.965,-44.764 -326.758,-32.675c-122.534,13.615 -332.204,95.304 -408.447,114.365c-15.851,3.962 -32.705,0.973 -49.014,-0Z" style="fill:#efedee;"/><path d="M2083.47,3794.94c795.111,10.892 1160.37,-404.07 1176.33,-424.785c143.435,-186.218 158.09,-478.762 40.845,-629.009c-183.801,-235.538 -359.434,-260.045 -555.488,-392.109c-142.207,-95.793 -223.82,-285 -375.772,-351.265c-181.078,-78.966 -408.447,-55.821 -563.657,24.507c-149.099,77.165 -239.981,245.056 -367.603,359.434c-144.318,129.341 -417.977,265.49 -498.305,416.616c-76.725,144.345 -65.352,348.541 16.338,490.136c81.689,141.595 292.974,278.194 473.798,359.434c187.886,84.412 430.252,143.983 653.516,147.041Z" style="fill:#f2b2de;"/><path d="M2401.08,2013.87c132.291,76.859 212.082,246.254 344.078,335.168c196.054,132.064 371.687,156.571 555.488,392.109c117.245,150.247 102.59,442.791 -40.845,629.009c-15.082,19.581 -342.269,391.421 -1049.58,422.879c-112.395,-25.845 -220.369,-61.941 -314.63,-104.29c-180.824,-81.24 -392.109,-217.839 -473.799,-359.434c-81.689,-141.595 -93.062,-345.791 -16.337,-490.137c80.328,-151.125 353.987,-287.274 498.305,-416.616c127.621,-114.377 218.504,-282.268 367.603,-359.433c39.262,-20.32 83.141,-36.981 129.721,-49.255Z" style="fill:#ffc3e5;"/><g><path d="M610.859,1182.49c202.487,-74.671 435.779,51.535 520.642,281.658c84.862,230.123 -10.634,477.577 -213.122,552.248c-202.488,74.672 -435.78,-51.535 -520.643,-281.657c-84.862,-230.123 10.635,-477.577 213.123,-552.249Z" style="fill:#ffc3e5;"/><path d="M3660.28,1174.32c-202.487,-74.671 -435.779,51.535 -520.642,281.658c-84.862,230.123 10.634,477.577 213.122,552.249c202.488,74.671 435.78,-51.536 520.643,-281.658c84.862,-230.123 -10.635,-477.577 -213.123,-552.249Z" style="fill:#ffc3e5;"/><path d="M1433.97,526.203c195.725,-72.178 421.501,50.563 503.87,273.923c82.368,223.36 -9.663,463.299 -205.388,535.476c-195.725,72.178 -421.501,-50.563 -503.87,-273.923c-82.368,-223.36 9.663,-463.299 205.388,-535.476Z" style="fill:#ffc3e5;"/><path d="M2829,526.203c-195.725,-72.178 -421.501,50.563 -503.87,273.923c-82.368,223.36 9.663,463.299 205.388,535.476c195.725,72.178 421.501,-50.563 503.87,-273.923c82.369,-223.36 -9.663,-463.299 -205.388,-535.476Z" style="fill:#ffc3e5;"/></g><path d="M1055.33,1924.3c-37.245,40.453 -83.348,72.326 -136.948,92.092c-202.488,74.672 -435.78,-51.535 -520.643,-281.657c-84.862,-230.123 10.635,-477.577 213.123,-552.249c37.81,-13.943 76.694,-20.882 115.486,-21.449c-140.287,86.784 -174.428,308.319 -74.266,507.238c89.877,178.496 258.78,280.958 403.248,256.025Zm2410.21,105.322c-37.892,-0.843 -75.847,-7.78 -112.778,-21.398c-202.488,-74.672 -297.984,-322.126 -213.122,-552.249c84.863,-230.123 318.155,-356.329 520.642,-281.658c50.416,18.592 94.198,47.894 130.216,84.973c-147.266,-33.843 -323.882,69.361 -416.529,253.356c-104.16,206.859 -63.081,438.176 91.571,516.976Zm-1678.4,-720.018c-17.181,10.173 -35.434,18.898 -54.69,25.999c-195.725,72.178 -421.501,-50.563 -503.87,-273.923c-82.368,-223.36 9.663,-463.299 205.388,-535.476c52.033,-19.189 106.19,-24.601 159.212,-18.009c-125.744,72.155 -192.201,255.416 -152.007,448.81c42.762,205.749 191.671,352.879 345.967,352.599Zm915.963,42.088c-57.255,9.326 -116.166,4.715 -172.581,-16.089c-195.725,-72.177 -287.756,-312.116 -205.388,-535.476c82.369,-223.36 308.145,-346.101 503.87,-273.923c13.401,4.941 26.315,10.669 38.72,17.124c-148.696,9.136 -289.219,153.25 -330.556,352.139c-41.653,200.415 31.23,389.949 165.935,456.225Z" style="fill:#f2b2de;"/></g></svg>